# xmcd
#
# Track frame offsets:
#	150
#	21119
#	39609
#	50466
#	64534
#	84026
#	105720
#	122080
#	141487
#	155496
#
# Disc length: 2449 seconds
#
# Revision: 0
# Processed by: cddbd v1.5.1PL0 Copyright (c) Steve Scherf et al.
# Submitted via: dBpowerAMP V4.0
#
DISCID=7e098f0a
DTITLE=Honeywagon - Bluegrass Tribute To the Stones
DYEAR=2005
DGENRE=Bluegrass
TTITLE0=Sympathy For The Devil
TTITLE1=Brown Sugar
TTITLE2=It's All Over Now
TTITLE3=Jumping Jack Flash
TTITLE4=Under My Thumb
TTITLE5=Wild Horses
TTITLE6=Tumblin Dice
TTITLE7=Angie
TTITLE8=Honky Tonk Woman
TTITLE9=You Can't Always Get What You Want
EXTD=
EXTT0=
EXTT1=
EXTT2=
EXTT3=
EXTT4=
EXTT5=
EXTT6=
EXTT7=
EXTT8=
EXTT9=
PLAYORDER=
